<svg width="11" height="16" viewBox="0 0 11 16" fill="none" xmlns="http://www.w3.org/2000/svg">
<path d="M10 0H1C0.447715 0 0 0.447715 0 1V15C0 15.5523 0.447715 16 1 16H10C10.5523 16 11 15.5523 11 15V3.5V1C11 0.447715 10.5523 0 10 0Z" fill="#666666"/>
<rect x="4" y="2" width="3" height="3" rx="1.5" fill="#D9D9D9"/>
<path d="M3 7.5C3 6.11929 4.11929 5 5.5 5C6.88071 5 8 6.11929 8 7.5V8H3V7.5Z" fill="#D9D9D9"/>
<rect x="1" y="10" width="9" height="1" rx="0.5" fill="#D9D9D9"/>
<rect x="1" y="14" width="9" height="1" rx="0.5" fill="#D9D9D9"/>
<rect x="1" y="12" width="9" height="1" rx="0.5" fill="#D9D9D9"/>
</svg>
