<svg width="11" height="8" viewBox="0 0 11 8" fill="none" xmlns="http://www.w3.org/2000/svg">
<path d="M11 6.5625L11 1C11 0.447715 10.5523 -1.95702e-08 10 -4.37114e-08L1 -4.37114e-07C0.447716 -4.61255e-07 -1.95703e-08 0.447715 -4.37114e-08 1L-2.86856e-07 6.5625C-3.10997e-07 7.11478 0.447715 7.5625 1 7.5625L8.59375 7.5625L10 7.5625C10.5523 7.5625 11 7.11478 11 6.5625Z" fill="#666666"/>
<rect x="10.8585" y="1.62671" width="6.1875" height="0.6875" rx="0.34375" transform="rotate(150 10.8585 1.62671)" fill="#D9D9D9"/>
<rect x="0.6875" y="1.03125" width="6.1875" height="0.6875" rx="0.34375" transform="rotate(30 0.6875 1.03125)" fill="#D9D9D9"/>
</svg>
