<?xml version="1.0" encoding="utf-8"?>
<!-- Generator: Adobe Illustrator 25.4.1, SVG Export Plug-In . SVG Version: 6.00 Build 0)  -->
<svg version="1.1" id="圖層_1" xmlns="http://www.w3.org/2000/svg" xmlns:xlink="http://www.w3.org/1999/xlink" x="0px" y="0px"
	 viewBox="0 0 300 300" style="enable-background:new 0 0 300 300;" xml:space="preserve">
<style type="text/css">
	.st0{fill:#F0F1F6;}
	.st1{fill:#5467EA;}
	.st2{fill:#F1AA70;}
	.st3{opacity:0.35;fill:#2E3E8E;}
	.st4{fill:#FFFFFF;}
	.st5{fill:#52617F;}
	.st6{fill:#A2B2EE;}
	.st7{opacity:0.3;fill:#FFFFFF;}
	.st8{fill:#C7CCD5;}
</style>
<g>
	<circle class="st0" cx="170.15" cy="130.91" r="108.63"/>
	<circle class="st0" cx="68.17" cy="220.22" r="45.37"/>
	<circle class="st0" cx="25.63" cy="135.22" r="19.25"/>
	<polygon class="st1" points="174.58,136.31 251.36,136.31 287.39,277.72 300,114.69 98.24,114.69 95.13,154.96 162.44,154.96 	"/>
	<g>
		
			<rect x="151.02" y="88.72" transform="matrix(0.9744 0.2248 -0.2248 0.9744 43.1705 -42.3302)" class="st2" width="112.92" height="159.41"/>
	</g>
	
		<rect x="121.27" y="80.01" transform="matrix(0.9909 0.1347 -0.1347 0.9909 23.1322 -22.4837)" class="st3" width="112.92" height="159.41"/>
	<g>
		
			<rect x="117.78" y="73.28" transform="matrix(0.9865 0.1635 -0.1635 0.9865 27.3544 -26.4271)" class="st4" width="112.92" height="159.41"/>
		<path class="st5" d="M194.52,144.72c-1.12,0-2.22-0.52-2.92-1.5l-29.75-41.56c-1.15-1.61-0.78-3.85,0.83-5
			c1.61-1.15,3.85-0.78,5,0.83l29.75,41.56c1.15,1.61,0.78,3.85-0.83,5C195.97,144.5,195.24,144.72,194.52,144.72z"/>
		<path class="st5" d="M158.87,138.81c-1.12,0-2.22-0.52-2.92-1.5c-1.15-1.61-0.78-3.85,0.83-5l41.56-29.75
			c1.61-1.15,3.85-0.78,5,0.83c1.15,1.61,0.78,3.85-0.83,5l-41.56,29.75C160.32,138.59,159.59,138.81,158.87,138.81z"/>
	</g>
	<polygon class="st3" points="247.08,144.19 263.52,144.19 287.39,277.72 	"/>
	<polygon class="st6" points="287.39,277.72 256.11,154.96 251.36,136.31 174.58,136.31 162.44,154.96 54.36,154.96 85.63,277.72 	
		"/>
	<path class="st4" d="M76.3,171.15h26.12c1.32,0,2.67,1.07,3,2.39l0,0c0.34,1.32-0.46,2.39-1.78,2.39H77.52
		c-1.32,0-2.67-1.07-3-2.39l0,0C74.18,172.22,74.98,171.15,76.3,171.15z"/>
	<path class="st4" d="M80.35,187.06h57.03c1.32,0,2.67,1.07,3,2.39l0,0c0.34,1.32-0.46,2.39-1.78,2.39H81.57
		c-1.32,0-2.67-1.07-3-2.39l0,0C78.24,188.14,79.03,187.06,80.35,187.06z"/>
	<path class="st4" d="M84.41,202.98h57.03c1.32,0,2.67,1.07,3,2.39l0,0c0.34,1.32-0.46,2.39-1.78,2.39H85.63
		c-1.32,0-2.67-1.07-3-2.39l0,0C82.29,204.05,83.09,202.98,84.41,202.98z"/>
	<g>
		
			<ellipse transform="matrix(0.9832 -0.1825 0.1825 0.9832 -27.7028 12.6836)" class="st7" cx="55.05" cy="156.84" rx="40.87" ry="40.87"/>
		<path class="st5" d="M54.96,200.69c-8.78,0-17.34-2.64-24.73-7.72c-9.65-6.63-16.14-16.62-18.28-28.14
			c-2.14-11.51,0.34-23.17,6.97-32.82c6.63-9.65,16.62-16.14,28.14-18.28c11.51-2.14,23.17,0.34,32.82,6.97
			c9.65,6.63,16.14,16.62,18.28,28.14c2.14,11.51-0.34,23.17-6.97,32.82l0,0c-6.63,9.65-16.62,16.14-28.14,18.28
			C60.35,200.45,57.65,200.69,54.96,200.69z M55.11,118.96c-12.07,0-23.95,5.74-31.29,16.42c-5.73,8.34-7.87,18.42-6.03,28.37
			c1.85,9.95,7.46,18.59,15.8,24.32c8.34,5.73,18.42,7.87,28.37,6.03c9.95-1.85,18.59-7.46,24.32-15.8
			c11.83-17.22,7.45-40.86-9.77-52.7C69.97,121.11,62.5,118.96,55.11,118.96z"/>
		<path class="st5" d="M30.55,142.98c-0.58,0-1.17-0.17-1.68-0.52c-1.35-0.93-1.7-2.78-0.77-4.13
			c10.21-14.86,30.61-18.64,45.47-8.43c2.91,2,5.46,4.43,7.57,7.22c0.99,1.31,0.73,3.17-0.58,4.16c-1.31,0.99-3.17,0.73-4.16-0.58
			c-1.73-2.28-3.81-4.27-6.2-5.91c-12.16-8.36-28.85-5.26-37.21,6.9C32.42,142.53,31.49,142.98,30.55,142.98z"/>
		<path class="st5" d="M25.32,160.23c-1.62,0-2.95-1.3-2.97-2.93c-0.04-2.4,0.19-4.81,0.68-7.15c0.33-1.61,1.91-2.64,3.51-2.3
			c1.61,0.33,2.64,1.91,2.3,3.51c-0.4,1.92-0.59,3.88-0.56,5.85c0.02,1.64-1.29,2.99-2.93,3.02
			C25.35,160.23,25.34,160.23,25.32,160.23z"/>
		
			<rect x="19.92" y="193.86" transform="matrix(0.5663 -0.8242 0.8242 0.5663 -150.2728 108.0946)" class="st5" width="15.31" height="5.94"/>
		<path class="st5" d="M3.08,232.48L3.08,232.48c-3.23-2.22-4.05-6.65-1.83-9.88l17.84-25.97l11.71,8.05l-17.84,25.97
			C10.74,233.89,6.32,234.71,3.08,232.48z"/>
	</g>
	<g>
		<path class="st8" d="M96.1,77.4l-1.26-1.6c-2.73-3.25-4.13-7.86-3.48-13.94c0.62-5.4,0.55-9.02-1.4-11.94
			c-2.21-3.31-5.77-4.13-9.91-1.46c-2.34,1.56-4.42,4.08-5.22,6.4l-4.3-3.05c1.1-2.99,4.11-6.51,7.56-8.81
			c7.47-4.99,13.94-2.64,17.24,2.3c2.95,4.42,2.61,9.25,1.97,15.04c-0.6,5.29,0.27,8.84,2.68,12.03l1.19,1.65L96.1,77.4z
			 M100.75,87.45c-1.61-2.4-1.11-5.18,1.16-6.7c2.27-1.52,4.96-0.87,6.57,1.53c1.52,2.27,1.2,5.03-1.21,6.63
			C105,90.44,102.27,89.73,100.75,87.45z"/>
	</g>
	<g>
		<path class="st8" d="M54.21,242.39l-0.62-0.87c-1.36-1.77-1.99-4.22-1.51-7.39c0.45-2.82,0.49-4.72-0.46-6.3
			c-1.09-1.79-2.93-2.3-5.16-0.99c-1.26,0.77-2.41,2.04-2.88,3.24l-2.18-1.7c0.65-1.54,2.3-3.32,4.16-4.45
			c4.03-2.45,7.37-1.07,8.99,1.6c1.45,2.38,1.16,4.91,0.69,7.94c-0.44,2.76-0.06,4.65,1.13,6.37l0.59,0.89L54.21,242.39z
			 M56.42,247.77c-0.79-1.3-0.47-2.74,0.76-3.49c1.23-0.75,2.62-0.35,3.41,0.95c0.75,1.23,0.51,2.66-0.78,3.45
			C58.59,249.43,57.17,248.99,56.42,247.77z"/>
	</g>
	<g>
		<path class="st8" d="M188.52,59.51l0.53-0.91c1.04-1.94,2.99-3.49,6.02-4.34c2.71-0.74,4.44-1.46,5.47-2.96
			c1.17-1.7,0.88-3.56-1.2-5.04c-1.2-0.82-2.81-1.34-4.07-1.28l0.64-2.65c1.65-0.04,3.91,0.73,5.68,1.94
			c3.83,2.63,3.94,6.19,2.2,8.72c-1.56,2.26-3.94,3.03-6.85,3.83c-2.66,0.73-4.2,1.82-5.26,3.59l-0.56,0.89L188.52,59.51z
			 M184.59,63.67c0.85-1.23,2.27-1.53,3.44-0.73c1.17,0.8,1.37,2.22,0.52,3.45c-0.8,1.17-2.18,1.54-3.42,0.69
			C183.97,66.28,183.79,64.83,184.59,63.67z"/>
	</g>
</g>
</svg>
