<svg width="12" height="16" viewBox="0 0 12 16" fill="none" xmlns="http://www.w3.org/2000/svg">
<path fill-rule="evenodd" clip-rule="evenodd" d="M6.90195 14.9316C9.26383 12.1511 12 8.92989 12 6C12 2.68629 9.31371 0 6 0C2.68629 0 0 2.68629 0 6C0 8.92989 2.73617 12.1511 5.09805 14.9316C5.40745 15.2958 5.71043 15.6525 6 16C6.28957 15.6525 6.59255 15.2958 6.90195 14.9316ZM6 8.03906C7.65685 8.03906 9 6.69592 9 5.03906C9 3.38221 7.65685 2.03906 6 2.03906C4.34315 2.03906 3 3.38221 3 5.03906C3 6.69592 4.34315 8.03906 6 8.03906Z" fill="#666666"/>
</svg>
