<svg
  width="24"
  height="26"
  viewBox="0 0 24 26"
  fill="none"
  xmlns="http://www.w3.org/2000/svg"
>
    <path d="M12 0H11.9885H11.9712C5.35385 0.0181319 6.28181e-10 5.63901 0 12.5714C-6.28181e-10 19.5038 5.35385 25.1247 11.9712 25.1429H12C18.6288 25.1429 24 19.5159 24 12.5714C24 5.62692 18.6288 0 12 0ZM12.4788 7.52473C13.7538 7.48846 14.9885 7.31319 16.1827 7.01099C16.5404 8.49176 16.7654 10.2022 16.8 12.0758H12.4788V7.52473ZM12.4788 6.51539V1.08791C13.7712 1.46264 15.0865 3.26978 15.9173 6.04396C14.8096 6.32198 13.6615 6.47912 12.4788 6.51539ZM11.5212 1.07582V6.52143C10.3269 6.48517 9.16731 6.32198 8.05385 6.03791C8.89615 3.2456 10.2173 1.42637 11.5212 1.07582ZM11.5212 7.52473V12.0698H7.17115C7.20577 10.1962 7.43077 8.48571 7.78846 7.00495C8.98846 7.30714 10.2404 7.48846 11.5212 7.52473ZM6.20192 12.0698H0.975C1.07885 9.48297 2.00192 7.11374 3.47308 5.24011C4.54039 5.85659 5.67692 6.36429 6.86538 6.73901C6.47308 8.34066 6.24231 10.1478 6.20192 12.0698ZM6.20192 13.0731C6.23654 14.989 6.46731 16.8022 6.85962 18.4038C5.68283 18.7805 4.5461 19.2827 3.46731 19.9027C1.99615 18.0291 1.07885 15.6599 0.969231 13.0731H6.20192ZM7.17115 13.0731H11.5212V17.6121C10.2404 17.6484 8.98846 17.8297 7.78846 18.1379C7.43077 16.6571 7.20577 14.9467 7.17115 13.0731ZM11.5212 18.6214V24.0731C10.2173 23.7165 8.89615 21.9033 8.05385 19.111C9.16731 18.8209 10.3269 18.6577 11.5212 18.6214ZM12.4788 24.0549V18.6154C13.6615 18.6516 14.8096 18.8148 15.9231 19.0929C15.0865 21.8731 13.7769 23.6802 12.4788 24.0549ZM12.4788 17.6121V13.0731H16.8C16.7654 14.9407 16.5404 16.6511 16.1827 18.1319C14.9885 17.8297 13.7538 17.6484 12.4788 17.6121ZM17.7635 13.0731H23.025C22.9212 15.6599 21.9981 18.0231 20.5269 19.9027C19.4481 19.2802 18.3058 18.7725 17.1058 18.3918C17.4981 16.7901 17.7288 14.989 17.7635 13.0731ZM17.7635 12.0698C17.7288 10.1538 17.4981 8.3467 17.1115 6.74506C18.3115 6.36429 19.4538 5.85659 20.5269 5.24011C21.9981 7.11374 22.9212 9.48297 23.025 12.0758H17.7635V12.0698ZM19.8692 4.46648C18.9115 4.99835 17.9077 5.43956 16.8519 5.77198C16.2923 3.88022 15.5019 2.33901 14.5731 1.32363C16.6154 1.83736 18.4385 2.94945 19.8692 4.46648ZM9.39231 1.33571C8.46346 2.34505 7.67885 3.88626 7.125 5.76593C6.08077 5.43352 5.08269 4.99835 4.13654 4.46648C5.55 2.95549 7.36154 1.84945 9.39231 1.33571ZM4.13077 20.6703C5.07692 20.1385 6.08077 19.7033 7.11923 19.3709C7.67885 21.2566 8.46346 22.7918 9.39231 23.8071C7.36154 23.2934 5.55 22.1874 4.13077 20.6703ZM14.5731 23.8192C15.5077 22.8038 16.2923 21.2626 16.8577 19.3648C17.9135 19.6973 18.9173 20.1385 19.875 20.6703C18.4442 22.1934 16.6154 23.3055 14.5731 23.8192Z" fill="#776B98"/>
    </svg>
